<svg width="185" height="65" viewBox="0 0 185 65" fill="none" xmlns="http://www.w3.org/2000/svg">
<circle cx="32.0005" cy="29.0005" r="19.1314" fill="#7788FD"/>
<g filter="url(#filter0_d_2001_11)">
<path d="M41.1465 28.8486L32.1791 28.8486L32.1791 19.8812" stroke="url(#paint0_linear_2001_11)" stroke-width="6" stroke-linecap="round" stroke-linejoin="round"/>
</g>
<g filter="url(#filter1_d_2001_11)">
<path d="M23.2393 28.8193H32.2067V37.7868" stroke="url(#paint1_linear_2001_11)" stroke-width="6" stroke-linecap="round" stroke-linejoin="round"/>
</g>
<path d="M68.48 42.5C68.48 41.8133 68.63 41.2 68.93 40.66C69.23 40.1133 69.64 39.69 70.16 39.39C70.68 39.0833 71.26 38.93 71.9 38.93C72.68 38.93 73.3467 39.1167 73.9 39.49C74.46 39.8567 74.8667 40.3767 75.12 41.05H74.3C74.1 40.5767 73.7933 40.2067 73.38 39.94C72.9733 39.6733 72.48 39.54 71.9 39.54C71.3867 39.54 70.9233 39.66 70.51 39.9C70.1033 40.14 69.7833 40.4867 69.55 40.94C69.3167 41.3867 69.2 41.9067 69.2 42.5C69.2 43.0933 69.3167 43.6133 69.55 44.06C69.7833 44.5067 70.1033 44.85 70.51 45.09C70.9233 45.33 71.3867 45.45 71.9 45.45C72.48 45.45 72.9733 45.32 73.38 45.06C73.7933 44.7933 74.1 44.4267 74.3 43.96H75.12C74.8667 44.6267 74.46 45.1433 73.9 45.51C73.34 45.8767 72.6733 46.06 71.9 46.06C71.26 46.06 70.68 45.91 70.16 45.61C69.64 45.3033 69.23 44.88 68.93 44.34C68.63 43.8 68.48 43.1867 68.48 42.5ZM79.0148 39.58V42.19H81.6648V42.77H79.0148V45.42H81.9648V46H78.3148V39H81.9648V39.58H79.0148ZM90.4141 46H89.7141L85.8441 40.12V46H85.1441V39.01H85.8441L89.7141 44.88V39.01H90.4141V46ZM97.8896 39.01V39.59H95.9496V46H95.2496V39.59H93.2996V39.01H97.8896ZM104.515 46L102.785 43.08H101.495V46H100.795V39.01H102.895C103.675 39.01 104.265 39.1967 104.665 39.57C105.072 39.9433 105.275 40.4333 105.275 41.04C105.275 41.5467 105.128 41.98 104.835 42.34C104.548 42.6933 104.122 42.9233 103.555 43.03L105.355 46H104.515ZM101.495 42.51H102.905C103.452 42.51 103.862 42.3767 104.135 42.11C104.415 41.8433 104.555 41.4867 104.555 41.04C104.555 40.58 104.422 40.2267 104.155 39.98C103.888 39.7267 103.468 39.6 102.895 39.6H101.495V42.51ZM111.604 46.07C110.957 46.07 110.371 45.92 109.844 45.62C109.317 45.3133 108.901 44.89 108.594 44.35C108.294 43.8033 108.144 43.1867 108.144 42.5C108.144 41.8133 108.294 41.2 108.594 40.66C108.901 40.1133 109.317 39.69 109.844 39.39C110.371 39.0833 110.957 38.93 111.604 38.93C112.257 38.93 112.847 39.0833 113.374 39.39C113.901 39.69 114.314 40.1133 114.614 40.66C114.914 41.2 115.064 41.8133 115.064 42.5C115.064 43.1867 114.914 43.8033 114.614 44.35C114.314 44.89 113.901 45.3133 113.374 45.62C112.847 45.92 112.257 46.07 111.604 46.07ZM111.604 45.46C112.124 45.46 112.591 45.34 113.004 45.1C113.417 44.86 113.744 44.5167 113.984 44.07C114.224 43.6167 114.344 43.0933 114.344 42.5C114.344 41.9067 114.224 41.3867 113.984 40.94C113.744 40.4933 113.417 40.15 113.004 39.91C112.591 39.67 112.124 39.55 111.604 39.55C111.084 39.55 110.617 39.67 110.204 39.91C109.791 40.15 109.464 40.4933 109.224 40.94C108.984 41.3867 108.864 41.9067 108.864 42.5C108.864 43.0933 108.984 43.6167 109.224 44.07C109.464 44.5167 109.791 44.86 110.204 45.1C110.617 45.34 111.084 45.46 111.604 45.46ZM129.519 39.1V46H128.819V40.49L126.359 46H125.849L123.389 40.51V46H122.689V39.1H123.429L126.099 45.08L128.769 39.1H129.519ZM133.607 39.58V42.19H136.257V42.77H133.607V45.42H136.557V46H132.907V39H136.557V39.58H133.607ZM135.517 37.49L133.467 38.68V38.14L135.517 36.86V37.49ZM141.806 39.01C142.58 39.01 143.243 39.15 143.796 39.43C144.35 39.71 144.773 40.1133 145.066 40.64C145.36 41.1667 145.506 41.7933 145.506 42.52C145.506 43.24 145.36 43.8633 145.066 44.39C144.773 44.91 144.35 45.31 143.796 45.59C143.243 45.8633 142.58 46 141.806 46H139.736V39.01H141.806ZM141.806 45.42C142.78 45.42 143.52 45.1667 144.026 44.66C144.54 44.1467 144.796 43.4333 144.796 42.52C144.796 41.6 144.54 40.8833 144.026 40.37C143.52 39.85 142.78 39.59 141.806 39.59H140.436V45.42H141.806ZM149.297 39.01V46H148.597V39.01H149.297ZM152.362 42.5C152.362 41.8133 152.512 41.2 152.812 40.66C153.112 40.1133 153.522 39.69 154.042 39.39C154.562 39.0833 155.142 38.93 155.782 38.93C156.562 38.93 157.229 39.1167 157.782 39.49C158.342 39.8567 158.749 40.3767 159.002 41.05H158.182C157.982 40.5767 157.675 40.2067 157.262 39.94C156.855 39.6733 156.362 39.54 155.782 39.54C155.269 39.54 154.805 39.66 154.392 39.9C153.985 40.14 153.665 40.4867 153.432 40.94C153.199 41.3867 153.082 41.9067 153.082 42.5C153.082 43.0933 153.199 43.6133 153.432 44.06C153.665 44.5067 153.985 44.85 154.392 45.09C154.805 45.33 155.269 45.45 155.782 45.45C156.362 45.45 156.855 45.32 157.262 45.06C157.675 44.7933 157.982 44.4267 158.182 43.96H159.002C158.749 44.6267 158.342 45.1433 157.782 45.51C157.222 45.8767 156.555 46.06 155.782 46.06C155.142 46.06 154.562 45.91 154.042 45.61C153.522 45.3033 153.112 44.88 152.812 44.34C152.512 43.8 152.362 43.1867 152.362 42.5ZM165.337 46.07C164.69 46.07 164.104 45.92 163.577 45.62C163.05 45.3133 162.634 44.89 162.327 44.35C162.027 43.8033 161.877 43.1867 161.877 42.5C161.877 41.8133 162.027 41.2 162.327 40.66C162.634 40.1133 163.05 39.69 163.577 39.39C164.104 39.0833 164.69 38.93 165.337 38.93C165.99 38.93 166.58 39.0833 167.107 39.39C167.634 39.69 168.047 40.1133 168.347 40.66C168.647 41.2 168.797 41.8133 168.797 42.5C168.797 43.1867 168.647 43.8033 168.347 44.35C168.047 44.89 167.634 45.3133 167.107 45.62C166.58 45.92 165.99 46.07 165.337 46.07ZM165.337 45.46C165.857 45.46 166.324 45.34 166.737 45.1C167.15 44.86 167.477 44.5167 167.717 44.07C167.957 43.6167 168.077 43.0933 168.077 42.5C168.077 41.9067 167.957 41.3867 167.717 40.94C167.477 40.4933 167.15 40.15 166.737 39.91C166.324 39.67 165.857 39.55 165.337 39.55C164.817 39.55 164.35 39.67 163.937 39.91C163.524 40.15 163.197 40.4933 162.957 40.94C162.717 41.3867 162.597 41.9067 162.597 42.5C162.597 43.0933 162.717 43.6167 162.957 44.07C163.197 44.5167 163.524 44.86 163.937 45.1C164.35 45.34 164.817 45.46 165.337 45.46Z" fill="#001B4C"/>
<path d="M73.4265 30L69.7305 23.472H68.1465V30H64.7865V13.248H71.0745C72.3705 13.248 73.4745 13.48 74.3865 13.944C75.2985 14.392 75.9785 15.008 76.4265 15.792C76.8905 16.56 77.1225 17.424 77.1225 18.384C77.1225 19.488 76.8025 20.488 76.1625 21.384C75.5225 22.264 74.5705 22.872 73.3065 23.208L77.3145 30H73.4265ZM68.1465 20.952H70.9545C71.8665 20.952 72.5465 20.736 72.9945 20.304C73.4425 19.856 73.6665 19.24 73.6665 18.456C73.6665 17.688 73.4425 17.096 72.9945 16.68C72.5465 16.248 71.8665 16.032 70.9545 16.032H68.1465V20.952ZM97.5615 23.064C97.5615 23.544 97.5295 23.976 97.4655 24.36H87.7455C87.8255 25.32 88.1615 26.072 88.7535 26.616C89.3455 27.16 90.0735 27.432 90.9375 27.432C92.1855 27.432 93.0735 26.896 93.6015 25.824H97.2255C96.8415 27.104 96.1055 28.16 95.0175 28.992C93.9295 29.808 92.5935 30.216 91.0095 30.216C89.7295 30.216 88.5775 29.936 87.5535 29.376C86.5455 28.8 85.7535 27.992 85.1775 26.952C84.6175 25.912 84.3375 24.712 84.3375 23.352C84.3375 21.976 84.6175 20.768 85.1775 19.728C85.7375 18.688 86.5215 17.888 87.5295 17.328C88.5375 16.768 89.6975 16.488 91.0095 16.488C92.2735 16.488 93.4015 16.76 94.3935 17.304C95.4015 17.848 96.1775 18.624 96.7215 19.632C97.2815 20.624 97.5615 21.768 97.5615 23.064ZM94.0815 22.104C94.0655 21.24 93.7535 20.552 93.1455 20.04C92.5375 19.512 91.7935 19.248 90.9135 19.248C90.0815 19.248 89.3775 19.504 88.8015 20.016C88.2415 20.512 87.8975 21.208 87.7695 22.104H94.0815ZM112.422 16.512C114.006 16.512 115.286 17.016 116.262 18.024C117.238 19.016 117.726 20.408 117.726 22.2V30H114.366V22.656C114.366 21.6 114.102 20.792 113.574 20.232C113.046 19.656 112.326 19.368 111.414 19.368C110.486 19.368 109.75 19.656 109.206 20.232C108.678 20.792 108.414 21.6 108.414 22.656V30H105.054V16.704H108.414V18.36C108.862 17.784 109.43 17.336 110.118 17.016C110.822 16.68 111.59 16.512 112.422 16.512ZM131.865 30.216C130.585 30.216 129.433 29.936 128.409 29.376C127.385 28.8 126.577 27.992 125.985 26.952C125.409 25.912 125.121 24.712 125.121 23.352C125.121 21.992 125.417 20.792 126.009 19.752C126.617 18.712 127.441 17.912 128.481 17.352C129.521 16.776 130.681 16.488 131.961 16.488C133.241 16.488 134.401 16.776 135.441 17.352C136.481 17.912 137.297 18.712 137.889 19.752C138.497 20.792 138.801 21.992 138.801 23.352C138.801 24.712 138.489 25.912 137.865 26.952C137.257 27.992 136.425 28.8 135.369 29.376C134.329 29.936 133.161 30.216 131.865 30.216ZM131.865 27.288C132.473 27.288 133.041 27.144 133.569 26.856C134.113 26.552 134.545 26.104 134.865 25.512C135.185 24.92 135.345 24.2 135.345 23.352C135.345 22.088 135.009 21.12 134.337 20.448C133.681 19.76 132.873 19.416 131.913 19.416C130.953 19.416 130.145 19.76 129.489 20.448C128.849 21.12 128.529 22.088 128.529 23.352C128.529 24.616 128.841 25.592 129.465 26.28C130.105 26.952 130.905 27.288 131.865 27.288ZM151.85 26.904L155.21 16.704H158.786L153.866 30H149.786L144.89 16.704H148.49L151.85 26.904ZM178.073 23.064C178.073 23.544 178.041 23.976 177.977 24.36H168.257C168.337 25.32 168.673 26.072 169.265 26.616C169.857 27.16 170.585 27.432 171.449 27.432C172.697 27.432 173.585 26.896 174.113 25.824H177.737C177.353 27.104 176.617 28.16 175.529 28.992C174.441 29.808 173.105 30.216 171.521 30.216C170.241 30.216 169.089 29.936 168.065 29.376C167.057 28.8 166.265 27.992 165.689 26.952C165.129 25.912 164.849 24.712 164.849 23.352C164.849 21.976 165.129 20.768 165.689 19.728C166.249 18.688 167.033 17.888 168.041 17.328C169.049 16.768 170.209 16.488 171.521 16.488C172.785 16.488 173.913 16.76 174.905 17.304C175.913 17.848 176.689 18.624 177.233 19.632C177.793 20.624 178.073 21.768 178.073 23.064ZM174.593 22.104C174.577 21.24 174.265 20.552 173.657 20.04C173.049 19.512 172.305 19.248 171.425 19.248C170.593 19.248 169.889 19.504 169.313 20.016C168.753 20.512 168.409 21.208 168.281 22.104H174.593Z" fill="#001B4C"/>
<defs>
<filter id="filter0_d_2001_11" x="9.17871" y="0.880859" width="54.9678" height="54.9678" filterUnits="userSpaceOnUse" color-interpolation-filters="sRGB">
<feFlood flood-opacity="0" result="BackgroundImageFix"/>
<feColorMatrix in="SourceAlpha" type="matrix" values="0 0 0 0 0 0 0 0 0 0 0 0 0 0 0 0 0 0 127 0" result="hardAlpha"/>
<feOffset dy="4"/>
<feGaussianBlur stdDeviation="10"/>
<feComposite in2="hardAlpha" operator="out"/>
<feColorMatrix type="matrix" values="0 0 0 0 0 0 0 0 0 0 0 0 0 0 0 0 0 0 0.25 0"/>
<feBlend mode="normal" in2="BackgroundImageFix" result="effect1_dropShadow_2001_11"/>
<feBlend mode="normal" in="SourceGraphic" in2="effect1_dropShadow_2001_11" result="shape"/>
</filter>
<filter id="filter1_d_2001_11" x="0.239258" y="9.81934" width="54.9678" height="54.9678" filterUnits="userSpaceOnUse" color-interpolation-filters="sRGB">
<feFlood flood-opacity="0" result="BackgroundImageFix"/>
<feColorMatrix in="SourceAlpha" type="matrix" values="0 0 0 0 0 0 0 0 0 0 0 0 0 0 0 0 0 0 127 0" result="hardAlpha"/>
<feOffset dy="4"/>
<feGaussianBlur stdDeviation="10"/>
<feComposite in2="hardAlpha" operator="out"/>
<feColorMatrix type="matrix" values="0 0 0 0 0 0 0 0 0 0 0 0 0 0 0 0 0 0 0.25 0"/>
<feBlend mode="normal" in2="BackgroundImageFix" result="effect1_dropShadow_2001_11"/>
<feBlend mode="normal" in="SourceGraphic" in2="effect1_dropShadow_2001_11" result="shape"/>
</filter>
<linearGradient id="paint0_linear_2001_11" x1="17.119" y1="43.8972" x2="41.0642" y2="19.7995" gradientUnits="userSpaceOnUse">
<stop stop-color="white"/>
<stop offset="1" stop-color="#FBFBFF"/>
</linearGradient>
<linearGradient id="paint1_linear_2001_11" x1="36.4703" y1="24.5282" x2="24.312" y2="40.9776" gradientUnits="userSpaceOnUse">
<stop stop-color="white"/>
<stop offset="1" stop-color="white"/>
</linearGradient>
</defs>
</svg>
